<?xml version="1.0" encoding="UTF-8" standalone="no"?>
<!-- Created with Inkscape (http://www.inkscape.org/) -->

<svg
   width="174.20508mm"
   height="201mm"
   viewBox="0 0 174.20508 201.00001"
   version="1.1"
   id="svg5"
   inkscape:version="1.2.2 (b0a84865, 2022-12-01)"
   sodipodi:docname="chesspieces.svg"
   xmlns:inkscape="http://www.inkscape.org/namespaces/inkscape"
   xmlns:sodipodi="http://sodipodi.sourceforge.net/DTD/sodipodi-0.dtd"
   xmlns="http://www.w3.org/2000/svg"
   xmlns:svg="http://www.w3.org/2000/svg">
  <sodipodi:namedview
     id="namedview7"
     pagecolor="#ffffff"
     bordercolor="#000000"
     borderopacity="0.25"
     inkscape:showpageshadow="2"
     inkscape:pageopacity="0.0"
     inkscape:pagecheckerboard="0"
     inkscape:deskcolor="#d1d1d1"
     inkscape:document-units="mm"
     showgrid="true"
     inkscape:zoom="0.78585199"
     inkscape:cx="213.14446"
     inkscape:cy="381.11502"
     inkscape:window-width="1440"
     inkscape:window-height="817"
     inkscape:window-x="0"
     inkscape:window-y="25"
     inkscape:window-maximized="0"
     inkscape:current-layer="g5141">
    <inkscape:grid
       type="axonomgrid"
       id="grid1938"
       spacingy="10"
       originx="-42.801268"
       originy="-74.500002" />
  </sodipodi:namedview>
  <defs
     id="defs2" />
  <g
     inkscape:groupmode="layer"
     id="layer3"
     inkscape:label="white"
     transform="translate(-42.801269,-74.5)"
     sodipodi:insensitive="true"
     style="display:none">
    <path
       style="fill:#d1f1d7;fill-opacity:1;stroke:#ebb898;stroke-width:1;stroke-dasharray:none;stroke-opacity:1"
       d="M 43.301269,75 H 216.50635 V 275 H 43.301269 Z"
       id="path4992" />
  </g>
  <g
     inkscape:groupmode="layer"
     id="layer2"
     inkscape:label="black"
     transform="translate(-42.801269,-74.5)"
     style="display:none"
     sodipodi:insensitive="true">
    <path
       style="fill:#33a448;fill-opacity:1;stroke:#ebb898;stroke-width:1;stroke-dasharray:none;stroke-opacity:1"
       d="M 43.301269,75 H 216.50635 V 275 H 43.301269 Z"
       id="path5004" />
  </g>
  <g
     inkscape:label="template"
     inkscape:groupmode="layer"
     id="layer1"
     transform="translate(-42.801269,-74.5)"
     style="display:none">
    <g
       id="g5053">
      <path
         style="fill:none;fill-opacity:1;stroke:#000000;stroke-width:1;stroke-dasharray:none;stroke-opacity:1"
         d="m 129.90381,175.80077 c 19.6604,0 42.5005,20.35459 42.5005,39.19923 0,18.84464 -22.8401,39.19923 -42.5005,39.19923 -19.6604,0 -42.500492,-20.35459 -42.500492,-39.19923 0,-18.84464 22.840092,-39.19923 42.500492,-39.19923 z"
         id="path1976"
         sodipodi:nodetypes="zzzzz" />
      <path
         style="fill:none;fill-opacity:1;stroke:#000000;stroke-width:1;stroke-opacity:1"
         d="m 129.90381,155 c 12.0185,0 25.98076,12.9815 25.98076,25 0,12.0185 -13.96226,25 -25.98076,25 -12.0185,0 -25.98076,-12.9815 -25.98076,-25 0,-12.0185 13.96226,-25 25.98076,-25 z"
         id="path1980"
         sodipodi:nodetypes="zzzzz" />
      <path
         style="display:inline;fill:none;fill-opacity:1;stroke:#000000;stroke-width:1;stroke-opacity:1"
         d="m 129.90381,155 c 12.0185,0 25.98076,12.9815 25.98076,25 0,12.0185 -13.96226,25 -25.98076,25 -12.0185,0 -25.98076,-12.9815 -25.98076,-25 0,-12.0185 13.96226,-25 25.98076,-25 z"
         id="path5068"
         sodipodi:nodetypes="zzzzz" />
    </g>
  </g>
  <g
     inkscape:label="pawn"
     inkscape:groupmode="layer"
     id="g5141"
     transform="translate(-42.801269,-74.5)"
     style="display:none">
    <path
       id="path5133"
       style="fill:none;fill-opacity:1;stroke:#000000;stroke-width:1;stroke-dasharray:none;stroke-opacity:1"
       d="m 129.90396,155 c -12.01849,0 -25.98084,12.98153 -25.98084,25.00002 0,1.79092 0.3121,3.60283 0.87953,5.39037 -9.99958,7.67257 -17.399452,18.88451 -17.399452,29.60956 0,18.84462 22.840382,39.19916 42.500762,39.19916 19.66038,0 42.50025,-20.35454 42.50025,-39.19916 0,-10.72512 -7.39977,-21.93699 -17.39945,-29.60956 0.56743,-1.78754 0.88005,-3.59945 0.88005,-5.39037 C 155.88481,167.98153 141.92245,155 129.90396,155 Z" />
    <path
       style="display:inline;fill:none;fill-opacity:1;stroke:#000000;stroke-width:1;stroke-opacity:1"
       d="m 129.90381,155 c 12.0185,0 25.98076,12.9815 25.98076,25 0,12.0185 -13.96226,25 -25.98076,25 -12.0185,0 -25.98076,-12.9815 -25.98076,-25 0,-12.0185 13.96226,-25 25.98076,-25 z"
       id="path5137"
       sodipodi:nodetypes="zzzzz" />
  </g>
  <g
     inkscape:label="bishop"
     inkscape:groupmode="layer"
     id="g5169"
     transform="translate(-42.80127,-74.499999)"
     style="display:inline">
    <path
       id="path5161"
       style="display:inline;fill:none;fill-opacity:1;stroke:#000000;stroke-width:1;stroke-dasharray:none;stroke-opacity:1"
       d="m 129.90396,120.52716 c -7.86104,0 -16.99379,8.49094 -16.99379,16.35198 0,5.3256 4.192,10.93958 9.34,14.00741 -9.79085,3.655 -18.82728,13.94499 -18.82728,23.61355 0,3.29632 1.0522,6.6645 2.82464,9.818 -10.723801,7.67501 -18.844331,19.44616 -18.844331,30.68185 0,18.84462 22.840381,39.19916 42.500761,39.19916 19.66038,0 42.50025,-20.35454 42.50025,-39.19916 0,-11.4865 -8.48597,-23.53391 -19.56521,-31.19086 1.60317,-3.00544 2.54558,-6.18947 2.54558,-9.30899 0,-9.47087 -8.6708,-19.53786 -18.22783,-23.38101 5.32945,-3.01016 9.74049,-8.77679 9.74049,-14.23995 0,-7.86104 -9.13223,-16.35198 -16.99328,-16.35198 z" />
    <path
       id="path5222"
       style="display:inline;fill:none;fill-opacity:1;stroke:#000000;stroke-width:1;stroke-opacity:1"
       d="m 129.90396,120.52716 c -7.86104,0 -16.99379,8.49094 -16.99379,16.35198 0,5.3256 4.192,10.93958 9.34,14.00741 -9.79085,3.655 -18.82728,13.94499 -18.82728,23.61355 0,12.01848 13.96236,25.00002 25.98085,25.00002 12.01848,0 25.98084,-12.98154 25.98084,-25.00002 0,-9.47087 -8.6708,-19.53786 -18.22783,-23.38101 5.32945,-3.01016 9.74049,-8.77679 9.74049,-14.23995 0,-7.86104 -9.13223,-16.35198 -16.99328,-16.35198 z" />
    <path
       style="display:inline;fill:none;fill-opacity:1;stroke:#000000;stroke-width:1;stroke-dasharray:none;stroke-opacity:1"
       d="m 129.90381,120.52723 c 7.86105,0 16.99347,8.49093 16.99347,16.35198 0,7.86105 -9.13242,16.35198 -16.99347,16.35198 -7.86105,0 -16.99347,-8.49093 -16.99347,-16.35198 0,-7.86105 9.13242,-16.35198 16.99347,-16.35198 z"
       id="path5259"
       sodipodi:nodetypes="zzzzz" />
    <path
       style="fill:none;fill-opacity:1;stroke:#000000;stroke-width:1;stroke-dasharray:none;stroke-opacity:1"
       d="m 121.24356,120 8.66025,-5 8.66026,5 V 99.999997 l -8.66026,-15 -8.66025,15 z"
       id="path6072"
       sodipodi:nodetypes="ccccccc" />
  </g>
  <g
     inkscape:label="queen"
     inkscape:groupmode="layer"
     id="g5314"
     transform="translate(-42.80127,-74.499999)"
     style="display:none">
    <path
       id="path5306"
       style="fill:none;fill-opacity:1;stroke:#000000;stroke-width:1;stroke-dasharray:none;stroke-opacity:1"
       d="m 129.90396,154.99999 c -12.01848,0 -25.98084,12.98154 -25.98084,25.00003 0,1.79092 0.3121,3.60283 0.87953,5.39037 -9.999579,7.67257 -17.399451,18.8845 -17.399451,29.60956 0,18.84462 22.840381,39.19916 42.500761,39.19916 19.66038,0 42.50025,-20.35454 42.50025,-39.19916 0,-10.72512 -7.39977,-21.93699 -17.39945,-29.60956 0.56743,-1.78754 0.88005,-3.59945 0.88005,-5.39037 0,-12.01849 -13.96236,-25.00003 -25.98085,-25.00003 z" />
    <path
       id="path5310"
       style="display:inline;fill:none;fill-opacity:1;stroke:#000000;stroke-width:1;stroke-opacity:1"
       d="m 103.92312,89.999828 v 20.000332 l 7.27759,4.20181 c -4.33936,4.57198 -7.27759,10.28587 -7.27759,15.798 0,12.01849 13.96236,25.00002 25.98084,25.00002 12.01849,0 25.98085,-12.98153 25.98085,-25.00002 0,-5.51213 -2.93823,-11.22602 -7.2776,-15.798 l 7.2776,-4.20181 V 89.999828 l -8.66046,5.000212 -8.66045,-5.000212 -8.65994,5.000212 -8.66045,-5.000212 -8.66045,5.000212 z" />
    <path
       style="fill:none;fill-opacity:1;stroke:#000000;stroke-width:1;stroke-dasharray:none;stroke-opacity:1"
       d="m 147.22432,155 17.32051,-10 8.66025,-5 8.66025,-5 25.98077,15 v 10 l -8.66026,5 -17.32051,-10 -17.3205,10 z"
       id="path5594" />
    <path
       style="fill:none;fill-opacity:1;stroke:#000000;stroke-width:1;stroke-dasharray:none;stroke-opacity:1"
       d="M 112.5833,155 77.942289,135 51.961526,150 v 10 l 8.660254,5 17.320509,-10 17.320505,10 z"
       id="path5596" />
    <path
       style="display:inline;fill:none;fill-opacity:1;stroke:#000000;stroke-width:1;stroke-opacity:1"
       d="m 129.90381,105 c 12.0185,0 25.98076,12.9815 25.98076,25 0,12.0185 -13.96226,25 -25.98076,25 -12.0185,0 -25.98076,-12.9815 -25.98076,-25 0,-12.0185 13.96226,-25 25.98076,-25 z"
       id="path5663"
       sodipodi:nodetypes="zzzzz" />
  </g>
  <g
     inkscape:label="king"
     inkscape:groupmode="layer"
     id="g5755"
     transform="translate(-42.80127,-74.499999)"
     style="display:none">
    <path
       id="path5747"
       style="fill:none;fill-opacity:1;stroke:#000000;stroke-width:1;stroke-dasharray:none;stroke-opacity:1"
       d="m 103.92312,139.99988 v 20.00033 l 7.27759,4.20181 c -4.33936,4.57198 -7.27759,10.28587 -7.27759,15.798 0,1.79092 0.3121,3.60283 0.87953,5.39037 -9.999579,7.67257 -17.399451,18.8845 -17.399451,29.60956 0,18.84462 22.840381,39.19916 42.500761,39.19916 19.66038,0 42.50025,-20.35454 42.50025,-39.19916 0,-10.72512 -7.39977,-21.93699 -17.39945,-29.60956 0.56743,-1.78754 0.88005,-3.59945 0.88005,-5.39037 0,-5.51213 -2.93823,-11.22602 -7.2776,-15.798 l 7.2776,-4.20181 v -20.00033 l -8.66046,5.00021 -8.66045,-5.00021 -8.65994,5.00021 -8.66045,-5.00021 -8.66045,5.00021 z" />
    <path
       id="path5751"
       style="display:inline;fill:none;fill-opacity:1;stroke:#000000;stroke-width:1;stroke-opacity:1"
       d="m 103.92312,139.99988 v 20.00033 l 7.27759,4.20181 c -4.33936,4.57198 -7.27759,10.28587 -7.27759,15.798 0,12.01849 13.96236,25.00002 25.98084,25.00002 12.01849,0 25.98085,-12.98153 25.98085,-25.00002 0,-5.51213 -2.93823,-11.22602 -7.2776,-15.798 l 7.2776,-4.20181 v -20.00033 l -8.66046,5.00021 -8.66045,-5.00021 -8.65994,5.00021 -8.66045,-5.00021 -8.66045,5.00021 z" />
    <path
       style="display:inline;fill:none;fill-opacity:1;stroke:#000000;stroke-width:1;stroke-dasharray:none;stroke-opacity:1"
       d="m 129.90381,175 25.98076,-15 v -20.00001 l -8.66025,5 -8.66025,-5 -8.66026,5 -8.66025,-5 -8.66026,5 -8.66025,-5 V 160 Z"
       id="path5805" />
  </g>
  <g
     inkscape:label="rook"
     inkscape:groupmode="layer"
     id="g5846"
     transform="translate(-42.80127,-74.499999)"
     style="display:none">
    <path
       style="fill:none;fill-opacity:1;stroke:#000000;stroke-width:1;stroke-dasharray:none;stroke-opacity:1"
       d="m 173.20508,120 -8.66025,-5 -8.66026,5 v 20 l -8.66025,-5 v -20 l -17.32051,-10 -17.32051,10 v 20 l -8.66025,5 v -20 l -8.660256,-5 -8.660251,5 v 30 10 l 8.660251,-5 8.660256,5 v 20 l 8.66025,5 v -30 l 17.32051,-10 17.32051,10 v 30 l 8.66025,-5 v -20 l 8.66026,-5 8.66025,5 v -10 z"
       id="path5891"
       sodipodi:nodetypes="ccccccccccccccccccccccccccccc" />
    <path
       style="fill:none;fill-opacity:1;stroke:#000000;stroke-width:1;stroke-dasharray:none;stroke-opacity:1"
       d="M 86.602543,190 129.90381,214.99999 173.20508,190 v 40 l -43.30127,25 -43.301267,-25 z"
       id="path5897" />
    <path
       style="fill:none;fill-opacity:1;stroke:#000000;stroke-width:1;stroke-dasharray:none;stroke-opacity:1"
       d="m 86.602543,190 17.320507,-10 8.66025,5 v -10 l 17.32051,-10 17.32051,10 v 10 l 8.66025,-5 17.32051,10 -43.30127,24.99999 z"
       id="path5899" />
  </g>
  <g
     inkscape:label="knight"
     inkscape:groupmode="layer"
     id="g5943"
     transform="translate(-42.80127,-74.499999)"
     style="display:none">
    <path
       style="fill:none;fill-opacity:1;stroke:#000000;stroke-width:1;stroke-dasharray:none;stroke-opacity:1"
       d="m 172.40431,215 c 0,18.84464 -22.8401,39.19923 -42.5005,39.19923 -19.6604,0 -42.500492,-20.35459 -42.500492,-39.19923 0,-18.84464 22.840092,-39.19923 42.500492,-39.19923 z"
       id="path5935"
       sodipodi:nodetypes="czzcc" />
    <path
       style="fill:none;fill-opacity:1;stroke:#000000;stroke-width:1;stroke-dasharray:none;stroke-opacity:1"
       d="m 95.262794,155 v -30 l 8.660256,-5 -8.660256,-5 v -10 l 8.660256,-5.000003 8.66025,-5 v -10 l 8.66026,5 8.66025,5 V 105 l 25.98076,15 v 10 l 17.32051,10 v 20 h -17.32051 l -8.66025,-5 -25.98076,14.99999 z"
       id="path5992"
       sodipodi:nodetypes="ccccccccccccccccccc" />
    <path
       style="fill:none;fill-opacity:1;stroke:#000000;stroke-width:1;stroke-dasharray:none;stroke-opacity:1"
       d="m 129.90381,115 -8.66025,5 8.66025,5 z"
       id="path5994" />
  </g>
</svg>
